grf
version=1
nRows=16
nColumns=28
inDegrees=no
endheader
time	ground_force_1_vx	ground_force_1_vy	ground_force_1_vz	ground_force_1_px	ground_force_1_py	ground_force_1_pz	ground_moment_1_mx	ground_moment_1_my	ground_moment_1_mz	ground_force_2_vx	ground_force_2_vy	ground_force_2_vz	ground_force_2_px	ground_force_2_py	ground_force_2_pz	ground_moment_2_mx	ground_moment_2_my	ground_moment_2_mz	ground_force_3_vx	ground_force_3_vy	ground_force_3_vz	ground_force_3_px	ground_force_3_py	ground_force_3_pz	ground_moment_3_mx	ground_moment_3_my	ground_moment_3_mz
      1.36000000	      0.41490307	      0.46682649	      2.03757928	    325.34136023	  -1256.60050104	      2.01512570	      0.08762688	      0.31685994	    173.62218831	      0.58484870	     -3.59921175	      2.36618070	    160.68069601	  -1596.10610933	      0.25652943	      0.07041107	      0.91062202	  -1091.17415716	     36.92407976	    -22.53970858	   -589.56588168	    402.07327034	   -199.02569418	      0.19306505	     -0.59326422	      4.35807561	   2122.12197725
      1.37000000	      0.34030849	      0.43742128	      1.79336571	    280.61371596	  -1314.23137787	      2.14287585	      0.08463010	      0.30602353	    167.68441489	      0.39445323	     -3.46480596	      2.28083347	    121.16427246	  -1632.42127857	      0.22367328	      0.08046232	      1.04061425	  -1246.94039979	     32.65361115	    -14.63233529	   -551.89726407	    400.64580788	   -195.14339712	      0.18469315	     -0.50144568	      3.68358332	   1793.68459970
      1.38000000	      0.33697848	      0.22377901	      1.40008619	    252.82676679	  -1266.42522033	      2.06965380	      0.06113236	      0.22105541	    121.12646307	      0.51150191	     -3.44496763	      2.13060793	    120.00830745	  -1499.91313128	      0.33418125	      0.07350865	      0.95068280	  -1139.17792649	     28.50122892	     -9.53907827	   -522.63495430	    399.51754838	   -190.63657223	      0.17512233	     -0.32733776	      2.40459925	   1170.89591025
      1.39000000	      0.31559838	      0.30540569	      2.08527459	    333.87350523	  -1254.76376086	      2.00746749	      0.07485577	      0.27067944	    148.31775979	      0.58686366	     -3.46907217	      2.11144477	     95.16256669	  -1627.58664812	      0.22603011	      0.08428810	      1.09009272	  -1306.22913286	     24.91561727	     -4.58822222	   -500.77888906	    398.27582288	   -185.95466675	      0.16516024	     -0.17166223	      1.26101821	    614.04039311
      1.40000000	      0.48513830	      0.25362400	      1.50689027	    204.17688150	  -1241.64666729	      2.04898655	      0.06886122	      0.24900306	    136.44027036	      0.40216006	     -3.43688082	      2.53127552	    155.24696523	  -1589.25710342	      0.26189454	      0.06727327	      0.87004098	  -1042.54697845	     22.71066202	      0.19375047	   -488.94107357	    396.92254875	   -181.60564684	      0.15585059	     -0.05020031	      0.36876779	    179.56784387
      1.41000000	      0.36699338	      0.21149931	      2.09674328	    304.74201883	  -1252.68852398	      2.01838281	      0.05854135	      0.21168629	    115.99269040	      0.68088799	     -3.56480151	      2.42088161	    133.87839307	  -1529.47815252	      0.31040324	      0.07355529	      0.95128594	  -1139.90065589	     22.17068262	      4.96920935	   -484.64871382	    396.35647732	   -177.07136746	      0.14638056	      0.02280540	     -0.16752683	    -81.57553948
      1.42000000	      0.39762201	      0.14324707	      1.99668277	    345.80435981	  -1283.61726659	      2.05410356	      0.05684290	      0.20554468	    112.62741610	      0.54045711	     -3.55946560	      2.30260496	    115.07554605	  -1584.55141722	      0.26322942	      0.08090620	      1.04635484	  -1253.81918981	     23.52329335	     10.03669065	   -488.90256336	    395.31338839	   -172.72185782	      0.13715662	      0.04713888	     -0.34627874	   -168.61702109
      1.43000000	      0.56588450	      0.35031017	      1.77279029	    290.15533042	  -1235.84490474	      1.99500514	      0.05610529	      0.20287746	    111.16592450	      0.50502075	     -3.56301914	      2.33218152	    164.60376921	  -1646.30494017	      0.21488995	      0.07124163	      0.92136355	  -1104.04545553	     25.50393739	     14.44233047	   -500.33298055	    394.55060598	   -168.18534955	      0.12762702	      0.12672797	     -0.93093439	   -453.30932766
      1.44000000	      0.35301073	      0.23130304	      1.17342834	    212.83071896	  -1268.81178495	      2.09419522	      0.05621485	      0.20327363	    111.38300239	      0.60026070	     -3.53401708	      2.50177798	    151.07302052	  -1587.90610293	      0.26275266	      0.07074605	      0.91495433	  -1096.36545748	     27.31451577	     18.88743162	   -518.70437809	    393.88971839	   -163.58317212	      0.11799105	      0.15902156	     -1.16816073	   -568.82435746
      1.45000000	      0.44510149	      0.17373451	      1.90096912	    321.64250354	  -1239.64392247	      1.98604681	      0.05724201	      0.20698784	    113.41819323	      0.67631835	     -3.70796754	      2.52760569	    164.59182801	  -1643.54699548	      0.21719078	      0.07312769	      0.94575582	  -1133.27405848	     29.43632162	     21.94274187	   -545.09982742	    393.57647841	   -158.27909371	      0.10701081	      0.22375296	     -1.64367289	   -800.37031615
      1.46000000	      0.46894361	      0.18324427	      1.14734396	    185.03966960	  -1267.56798185	      2.10595139	      0.07728626	      0.27946813	    153.13348548	      0.68790580	     -3.38768767	      1.99903898	     48.10976995	  -1687.99954826	      0.17257727	      0.09634052	      1.24596597	  -1493.00790986	     31.70646817	     23.34684723	   -581.19004441	    393.62341527	   -153.94762366	      0.09812865	      0.26305581	     -1.93238876	   -940.95766754
      1.47000000	      0.59926960	      0.13879712	      1.18645566	    227.09469348	  -1361.38500819	      2.25594205	      0.00688306	      0.02488924	     13.63796483	      0.46546874	     -3.60648872	      2.10770833	    109.20706518	  -1600.92214300	      0.24918881	      0.08093978	      1.04678918	  -1254.33965551	     32.60810172	     25.73863246	   -622.32790387	    393.72804347	   -149.46523560	      0.08895268	      0.34899616	     -2.56370029	  -1248.36859572
      1.48000000	      0.42238322	      0.19107726	      1.44729579	    238.31529232	  -1336.88335592	      2.20556360	      0.04420259	      0.15983713	     87.58213996	      0.61051642	     -3.35221779	      1.41194026	   -113.36738966	  -1483.68879087	      0.33266180	      0.12382013	      1.60135807	  -1918.86481393	     33.56454394	     28.96173675	   -668.60497760	    394.41563907	   -145.24391095	      0.08047582	      0.44383005	     -3.26034310	  -1587.59194673
      1.49000000	      0.38287303	      0.17293922	      1.37374404	    225.16507383	  -1326.06439441	      2.19245592	      0.05358146	      0.19375125	    106.16525435	      0.56095455	     -3.47165375	      2.14567268	    102.26676590	  -1530.20107775	      0.30776011	      0.07907772	      1.02270728	  -1225.48295046	     34.97732357	     32.18859293	   -718.97335563	    394.74187193	   -141.59836530	      0.07308039	      0.50202003	     -3.68780246	  -1795.73906866
      1.50000000	      0.40348117	      0.45389914	      0.71275457	    145.93677035	  -1431.04042603	      2.42402327	      0.10569832	      0.38220648	    209.42856916	      0.55846797	     -3.47405495	      2.00292446	     73.88434990	  -1627.73673353	      0.22453182	      0.08800553	      1.13817007	  -1363.83893909	     36.95379215	     37.05379917	   -769.05440310	    394.90810775	   -138.03480739	      0.06580859	      0.59829101	     -4.39500208	  -2140.10295520
      1.51000000	      0.44498694	      0.20081689	      1.79090242	    289.03000333	  -1226.64427311	      1.97878197	      0.06599015	      0.23862122	    130.75157940	      0.37933903	     -3.55044152	      2.11185205	     77.55608777	  -1624.93824374	      0.22710419	      0.09081823	      1.17454658	  -1407.42794998	     40.09391326	     43.67630045	   -817.85335130	    394.90014361	   -134.24252418	      0.05801838	      0.70907963	     -5.20884716	  -2536.39680160
